# xmcd CD database file
#
# Track frame offsets:
#	150
#	16357
#	30126
#	42470
#	57303
#	73414
#	86620
#	98164
#	108673
#	120324
#	129767
#	140420
#	151861
#	162272
#	174028
#	186207
#	197747
#	208576
#	220199
#	229672
#
# Disc length: 3245 seconds
#
# Revision: 1
# Processed by: cddbd v1.5.2PL0 Copyright (c) Steve Scherf et al.
# Submitted via: CDex 1.70beta2
#
DISCID=090cab14
DTITLE=KASETINA DEYTERH - OTAN TA SLOOY TA ELEGAN MPLOYZ 2-5
DYEAR=2011
DGENRE=Slow Blues
TTITLE0=Ray Charles - Georgia on my mind
TTITLE1=The Brothers Four - Greenfields
TTITLE2=The Rays - Silhouettes
TTITLE3=Gloria Lasso - Histoire d'un amour
TTITLE4=Johnny Matis - Misty
TTITLE5=Paul Anka - You belong to me
TTITLE6=The Chordettes - Soft sands
TTITLE7=Nat King Cole - Time and the river
TTITLE8=Slim Harpo - Rainin' in my heart
TTITLE9=Dean Martin - Luna mezzo mare
TTITLE10=La Vern - Fool that I am
TTITLE11=Bob Beckham - Just as much as ever
TTITLE12=Shirley Bassey - Hands across the sea
TTITLE13=James Brown - Got to cry
TTITLE14=Dalida - Inconnu mon amour
TTITLE15=Maxine Brown - All in my mind
TTITLE16=The Everly Brothers - Devoted to you
TTITLE17=Matt Monro - Memories of you
TTITLE18=Rickey Nelson - You are my one and only love
TTITLE19=Marv Johnson - I need you
EXTD=YEAR: 2011
EXTT0=
EXTT1=
EXTT2=
EXTT3=
EXTT4=
EXTT5=
EXTT6=
EXTT7=
EXTT8=
EXTT9=
EXTT10=
EXTT11=
EXTT12=
EXTT13=
EXTT14=
EXTT15=
EXTT16=
EXTT17=
EXTT18=
EXTT19=
PLAYORDER=
